<mxfile host="app.diagrams.net" agent="Mozilla/5.0 (Windows NT 10.0; Win64; x64; rv:140.0) Gecko/20100101 Firefox/140.0" version="28.2.5">
  <diagram name="Страница — 1" id="_ZqWXP5TV6WR4Lr5qen8">
    <mxGraphModel dx="868" dy="548" grid="1" gridSize="10" guides="1" tooltips="1" connect="1" arrows="1" fold="1" page="1" pageScale="1" pageWidth="827" pageHeight="1169" math="0" shadow="0">
      <root>
        <mxCell id="0" />
        <mxCell id="1" parent="0" />
        <mxCell id="7C1GdewAbQmGZ-jnsvzK-5" style="edgeStyle=orthogonalEdgeStyle;rounded=0;orthogonalLoop=1;jettySize=auto;html=1;entryX=0.5;entryY=0;entryDx=0;entryDy=0;" edge="1" parent="1" source="7C1GdewAbQmGZ-jnsvzK-1" target="7C1GdewAbQmGZ-jnsvzK-4">
          <mxGeometry relative="1" as="geometry" />
        </mxCell>
        <mxCell id="7C1GdewAbQmGZ-jnsvzK-1" value="Auth Service" style="rounded=1;whiteSpace=wrap;html=1;" vertex="1" parent="1">
          <mxGeometry x="360" y="250" width="120" height="60" as="geometry" />
        </mxCell>
        <mxCell id="7C1GdewAbQmGZ-jnsvzK-3" value="Mail Service" style="rounded=1;whiteSpace=wrap;html=1;" vertex="1" parent="1">
          <mxGeometry x="200" y="250" width="120" height="60" as="geometry" />
        </mxCell>
        <mxCell id="7C1GdewAbQmGZ-jnsvzK-10" style="edgeStyle=orthogonalEdgeStyle;rounded=0;orthogonalLoop=1;jettySize=auto;html=1;entryX=0.5;entryY=1;entryDx=0;entryDy=0;" edge="1" parent="1" source="7C1GdewAbQmGZ-jnsvzK-4" target="7C1GdewAbQmGZ-jnsvzK-1">
          <mxGeometry relative="1" as="geometry" />
        </mxCell>
        <mxCell id="7C1GdewAbQmGZ-jnsvzK-12" style="edgeStyle=orthogonalEdgeStyle;rounded=0;orthogonalLoop=1;jettySize=auto;html=1;entryX=0.5;entryY=1;entryDx=0;entryDy=0;" edge="1" parent="1" source="7C1GdewAbQmGZ-jnsvzK-4" target="7C1GdewAbQmGZ-jnsvzK-3">
          <mxGeometry relative="1" as="geometry" />
        </mxCell>
        <mxCell id="7C1GdewAbQmGZ-jnsvzK-15" style="edgeStyle=orthogonalEdgeStyle;rounded=0;orthogonalLoop=1;jettySize=auto;html=1;entryX=0.5;entryY=1;entryDx=0;entryDy=0;" edge="1" parent="1" source="7C1GdewAbQmGZ-jnsvzK-4" target="7C1GdewAbQmGZ-jnsvzK-14">
          <mxGeometry relative="1" as="geometry" />
        </mxCell>
        <mxCell id="7C1GdewAbQmGZ-jnsvzK-4" value="Kafka" style="rhombus;whiteSpace=wrap;html=1;" vertex="1" parent="1">
          <mxGeometry x="380" y="360" width="80" height="80" as="geometry" />
        </mxCell>
        <mxCell id="7C1GdewAbQmGZ-jnsvzK-9" style="edgeStyle=orthogonalEdgeStyle;rounded=0;orthogonalLoop=1;jettySize=auto;html=1;entryX=0.5;entryY=1;entryDx=0;entryDy=0;" edge="1" parent="1" source="7C1GdewAbQmGZ-jnsvzK-8" target="7C1GdewAbQmGZ-jnsvzK-4">
          <mxGeometry relative="1" as="geometry" />
        </mxCell>
        <mxCell id="7C1GdewAbQmGZ-jnsvzK-8" value="Api Gateway" style="rounded=1;whiteSpace=wrap;html=1;" vertex="1" parent="1">
          <mxGeometry x="360" y="540" width="120" height="60" as="geometry" />
        </mxCell>
        <mxCell id="7C1GdewAbQmGZ-jnsvzK-11" value="" style="endArrow=none;dashed=1;html=1;dashPattern=1 3;strokeWidth=2;rounded=0;entryX=0;entryY=0.5;entryDx=0;entryDy=0;exitX=1;exitY=0.5;exitDx=0;exitDy=0;" edge="1" parent="1" source="7C1GdewAbQmGZ-jnsvzK-3" target="7C1GdewAbQmGZ-jnsvzK-1">
          <mxGeometry width="50" height="50" relative="1" as="geometry">
            <mxPoint x="260" y="370" as="sourcePoint" />
            <mxPoint x="310" y="320" as="targetPoint" />
          </mxGeometry>
        </mxCell>
        <mxCell id="7C1GdewAbQmGZ-jnsvzK-14" value="Post Service" style="rounded=1;whiteSpace=wrap;html=1;" vertex="1" parent="1">
          <mxGeometry x="520" y="250" width="120" height="60" as="geometry" />
        </mxCell>
      </root>
    </mxGraphModel>
  </diagram>
</mxfile>
